<svg xmlns:rdf="http://www.w3.org/1999/02/22-rdf-syntax-ns#" xmlns="http://www.w3.org/2000/svg" viewBox="0 0 500 500" version="1.1" xmlns:cc="http://creativecommons.org/ns#" xmlns:dc="http://purl.org/dc/elements/1.1/">

 <g id="layer1" transform="translate(0,-552.36218)">

  <path id="path2987" d="M176.44,25.719c-36.69,0-66.44,29.75-66.44,66.437,0,36.684,29.75,66.404,66.44,66.404,10.41,0,20.23-2.39,29-6.65l38.53,33.75c-16.85,22.52-26.81,50.49-26.81,80.78,0,8.12,0.68,16.08,2.06,23.81l-54.97,27.94c-16.24-13.17-36.84-21.03-59.25-21.03-52.467,0-95,43.15-95,96.4,0,53.26,42.533,96.44,95,96.44,52.47,0,95-43.18,95-96.44,0-0.81-0.01-1.6-0.03-2.4l57-28.97c24.41,24.26,58.05,39.25,95.19,39.25,74.55,0,135-60.44,135-135s-60.45-135-135-135c-26.64,0-51.49,7.68-72.41,21l-41.41-36.28c2.9-7.46,4.5-15.53,4.5-24.004,0-36.687-29.72-66.437-66.4-66.437z" transform="translate(0,552.36218)" stroke-miterlimit="4" stroke-dasharray="none"/>

 </g>

</svg>

