<svg xmlns:rdf="http://www.w3.org/1999/02/22-rdf-syntax-ns#" xmlns="http://www.w3.org/2000/svg" height="100%" width="100%" version="1.1" xmlns:cc="http://creativecommons.org/ns#" xmlns:dc="http://purl.org/dc/elements/1.1/" viewBox="0 0 500 500">

<g id="molecule-seperate" class="vector">
	 <path id="rect3006" fill="#4d4d4d" d="M238.47,116.69c-6.19,15.51-18.02,28.15-32.97,35.37l34.656,29.75c9.9466-12.945,22.169-24.043,36.062-32.719l-37.75-32.406zm-23.688,175.81-53.062,25.281c21.922,16.476,36.484,42.224,37.906,71.406l54.4-25.94c-19.561-18.734-33.568-43.21-39.25-70.75z"/>

	 <path id="path3022" fill="#87cdde" d="M176.34,25.594c-36.81,0-66.65,29.838-66.65,66.656,0,36.82,29.84,66.69,66.65,66.69,36.82,0,66.66-29.87,66.66-66.69,0-36.818-29.84-66.656-66.66-66.656zm-71.72,273.16c-52.534,0-95.12,42.59-95.12,95.13,0,52.53,42.586,95.12,95.12,95.12,52.54,0,95.13-42.59,95.13-95.12,0-52.54-42.59-95.13-95.13-95.13z"/>

	 <path id="path3803" d="m484.64,265.55a139.32,139.32,0,1,1,-278.65,0,139.32,139.32,0,1,1,278.65,0z" transform="matrix(0.97849463,0,0,0.97849463,10.422319,4.9616165)" fill="#ff8080"/>
</g>

</svg>

