<svg xmlns:rdf="http://www.w3.org/1999/02/22-rdf-syntax-ns#" xmlns="http://www.w3.org/2000/svg" viewBox="0 0 1800 1000" version="1.1" xmlns:cc="http://creativecommons.org/ns#" xmlns:dc="http://purl.org/dc/elements/1.1/">
  
 <g id="layer1" transform="translate(0,-52.36215)">

  <path id="rect3015" fill="#8fc8f8" d="M0,0v100h100v-100h-100zm1300,100v100h100v100h100v100h100v-100-100-100h-100-100-100z" transform="translate(0,52.36215)"/>

  <path id="rect3017" fill="#85f780" d="M1700,0v100,100,100,100,100,100,100h100v-100-100-100-100-100-100-100h-100z" transform="translate(0,52.36215)"/>

  <path id="rect3019" fill="#f4ee64" d="M0,100v100,100,100,100,100,100h100v-100-100-100-100-100-100h-100z" transform="translate(0,52.36215)"/>

  <path id="rect3061" fill="#fcc171" d="M100,100v100,100,100,100,100,100h100v-100-100-100-100-100-100h-100z" transform="translate(0,52.36215)"/>

  <path id="rect3079" fill="#ea93d9" d="M200,300v100,100h100v100,100h100,100,100,100,100,100,100,100,100v-100-100-100-100h-100-100-100-100-100-100-100-100-100-100z" transform="translate(0,52.36215)"/>

  <path id="rect3385" fill="#77f0b4" d="M1200,200v100,100,100,100,100h100,100,100,100v-100h-100v-100h-100v-100h-100v-100-100h-100z" transform="translate(0,52.36215)"/>

  <path id="rect3389" fill="#f58989" d="m1200,152.36,0,100,100,0,0-100-100,0zm100,100,0,100,0,100,100,0,0,100,100,0,0,100,100,0,0-100,0-100-100,0,0-100-100,0,0-100-100,0z"/>

  <path id="rect3431" fill="#9487f8" d="M1600,100v100,100,100,100,100,100h100v-100-100-100-100-100-100h-100z" transform="translate(0,52.36215)"/>

  <path id="rect3513" fill="#989898" d="M300,840v100h100,100,100,100,100,100,100,100,100,100,100,100,100,100,100v-100h-100-100-100-100-100-100-100-100-100-100-100-100-100-100-100z" transform="translate(0,52.36215)"/>

  <path id="rect3515" fill="#c7c7c7" d="M300,740v100h100,100,100,100,100,100,100,100,100,100,100,100,100,100,100v-100h-100-100-100-100-100-100-100-100-100-100-100-100-100-100-100z" transform="translate(0,52.36215)"/>

 </g>

</svg>

